<svg xmlns="http://www.w3.org/2000/svg" viewBox="0 0 25 15">
  <title>Eurosport 2</title>
  <g fill="#c6c7ce" fill-rule="evenodd">
    <path d="M6.79 4.37H3.5V.63c0-.27.22-.48.48-.48h8.55c.26 0 .48.22.48.48v2.1c0 .29-.18.5-.47.5H6.8v1.14zm-3.4 10.67l3.4-3.07h5.75c.28 0 .48.23.48.48v2.1c0 .28-.2.5-.46.5H3.4zM6.79 9.2l4.34-1.87H6.8V4.37L4.27 7.33H0l2.73 1.86-2.34 2.78 3.9-1.7 2.5 1.7zm8.16 4.93v.43c0 .27.2.48.46.48h9.1c.26 0 .45-.21.45-.48v-2.11c0-.25-.2-.48-.48-.48h-4.25l2.65-3.57c1.57-2.05 1.92-4.34 1.06-6.09C23.22.84 21.7 0 19.76 0c-3 .02-4.7 1.67-4.77 4.65l-.01.7c0 .3.2.47.5.47h2.04c.26 0 .46-.2.47-.48l.03-.64c.05-.8.37-1.75 1.67-1.75 1.05 0 1.58.67 1.6 1.36.03.76-.15 1.33-.81 2.2l-5.3 7a.86.86 0 0 0-.23.62"/>
  </g>
</svg>
