<svg xmlns="http://www.w3.org/2000/svg" viewBox="0 0 35 10">
  <g fill="#B9BBCA" fill-rule="evenodd">
    <path d="M4.493 2.894H2.324V.417a.32.32 0 0 1 .319-.32H8.3a.32.32 0 0 1 .318.321v1.389c0 .19-.119.328-.308.328H4.493v.759zM2.247 9.959l2.246-2.037h3.81a.32.32 0 0 1 .316.318v1.399c0 .177-.127.32-.303.32H2.247z"/>
    <path d="M4.493 6.086l2.879-1.233H4.493v-1.96l-1.667 1.96H0l1.804 1.233L.255 7.922l2.588-1.127 1.65 1.127zm5.408 3.268v.286c0 .176.127.32.302.32h6.018c.176 0 .303-.144.303-.32v-1.4a.32.32 0 0 0-.315-.317h-2.817l1.753-2.363c1.046-1.355 1.274-2.872.704-4.03C15.37.556 14.364 0 13.085 0 11.092.015 9.97 1.108 9.926 3.08l-.009.467c0 .19.137.31.326.31h1.353c.176 0 .307-.139.317-.319l.02-.428c.03-.528.244-1.156 1.103-1.156.695 0 1.043.445 1.06.9.02.501-.102.878-.538 1.45l-3.503 4.642a.573.573 0 0 0-.154.408m11.913-4.878h-.888V2.62h-1.973v1.856h-.881V0h.88v1.8h1.974V0h.888v4.476zm1.94-.808h.703c.741 0 1.36-.455 1.36-1.427S25.204.808 24.464.808h-.71v2.86zm.735.808h-1.615V0h1.622c1.29 0 2.235.827 2.235 2.241 0 1.414-.952 2.235-2.242 2.235zm-2.848 1.048L20.16 7.765 21.648 10H20.58l-.977-1.547L18.621 10h-1.035l1.488-2.241-1.481-2.235h1.06l.97 1.547.99-1.547h1.028zm3.902.827h-1.43V10h-.888V6.351h-1.43v-.827h3.748v.827zM28.41 10l-.888-1.724h-.46V10h-.887V5.524h1.769c.881 0 1.443.6 1.443 1.376 0 .625-.37 1.099-.964 1.27l.97 1.83h-.983zm-1.347-2.475h.715c.447 0 .709-.252.709-.618 0-.38-.262-.625-.71-.625h-.714v1.243zM33.18 10l-.377-1.023h-1.839L30.587 10h-.932l1.737-4.476h1.022L34.138 10h-.958zm-1.296-3.51l-.626 1.692h1.252l-.626-1.692z"/>
  </g>
</svg>
