<svg xmlns="http://www.w3.org/2000/svg" viewBox="0 0 37 9">
  <g fill="#B9BBCA" fill-rule="evenodd">
    <path d="M3.92 2.55h-1.9V.37c0-.16.13-.28.29-.28h4.93c.16 0 .28.12.28.28v1.22c0 .17-.1.3-.27.3H3.92v.66zM1.96 8.8l1.96-1.8h3.33c.16 0 .27.14.27.28v1.24c0 .15-.1.28-.26.28h-5.3zM3.92 5.37l2.51-1.09h-2.5V2.55L2.46 4.28H0l1.57 1.1L.22 6.98l2.26-1 1.44 1zM9.9 8.92a.29.29 0 0 1-.3-.29V.3c.01-.16.14-.29.3-.29h26.18c.16 0 .29.13.29.29v8.34c0 .16-.13.3-.3.3H9.9zM16.3 3.3c.07.12.13.18.29.18h.83c.18 0 .2-.17.18-.26-.1-.34-.29-.71-.6-1.06a2.17 2.17 0 0 0-.9-.6 3.22 3.22 0 0 0-2.28 0 2.83 2.83 0 0 0-.97.6c-.27.27-.5.6-.66.98a3.3 3.3 0 0 0-.24 1.3c0 .48.08.92.24 1.3a2.83 2.83 0 0 0 1.63 1.58c.36.13.75.2 1.14.2 1.64 0 2.84-1.15 2.8-3.2-.01-.12-.1-.24-.24-.24h-2.35a.2.2 0 0 0-.2.2v.8c0 .11.1.2.2.2h1.24s-.14 1.04-1.45 1.04c-.25 0-.48-.05-.7-.13a1.61 1.61 0 0 1-.55-.35 1.7 1.7 0 0 1-.38-.59 2.2 2.2 0 0 1-.14-.82v.02c0-.31.04-.59.14-.82.1-.24.22-.43.38-.59a1.62 1.62 0 0 1 .55-.35c.22-.08.45-.13.7-.13.55 0 .99.14 1.34.73v.01zm11.93 2.95h-2.12v-4.7a.2.2 0 0 0-.2-.2h-.86a.2.2 0 0 0-.2.2v5.77c0 .11.1.2.2.2h3.18a.2.2 0 0 0 .2-.2v-.87a.2.2 0 0 0-.2-.2zm3.09-4.9h-2.08a.2.2 0 0 0-.2.2v5.77c0 .11.1.2.2.2h2.08c.9 0 1.67-.32 2.22-.94.5-.57.77-1.33.77-2.16 0-1.53-1.03-3.06-3-3.06zm-10 0c-1.77 0-3 1.31-3 3.09 0 1.78 1.23 3.08 3 3.08 1.78 0 3.01-1.3 3.01-3.08s-1.23-3.08-3-3.08z"/>
    <path d="M30.29 6.26h1.1c1.16 0 1.68-.95 1.68-1.83 0-.88-.52-1.81-1.67-1.81h-1.11v3.64zM19.56 4.44c0 1.18.76 1.88 1.77 1.88 1 0 1.76-.7 1.76-1.88s-.76-1.88-1.77-1.88c-1 0-1.76.7-1.76 1.88"/>
  </g>
</svg>
