<svg xmlns="http://www.w3.org/2000/svg" viewBox="0 0 213 26">
  <g fill="#fff" fill-rule="evenodd">
    <path d="M211.69.8h-16.34a.78.78 0 0 0-.77.78v3.36c0 .43.35.78.77.78h5.71v18.25c0 .43.35.78.78.78h3.36c.43 0 .78-.35.78-.78V5.72h5.7c.43 0 .78-.35.78-.78V1.58a.78.78 0 0 0-.77-.77m-16.82 22.62l-5.46-6.77s4.4-1.6 4.4-7.18c0-1.15-.19-2.27-.57-3.3a7.98 7.98 0 0 0-4.46-4.67 9.06 9.06 0 0 0-3.63-.7h-8.88a.78.78 0 0 0-.77.77v22.37c0 .43.34.78.77.78h3.35c.43 0 .78-.35.78-.78V5.72h4.97a3.57 3.57 0 0 1 2.56 1.07c.31.32.55.72.71 1.18a4.54 4.54 0 0 1 0 3.07A3.14 3.14 0 0 1 186.8 13c-.42.18-1.17.3-2.62.3h-2.08c-.41 0-.73.37-.41.88l7.77 10.22c.15.2.38.33.63.33h4.3c.63 0 1.05-.58.47-1.3m-27.29-7.33a6.5 6.5 0 0 1-3.8 3.73 8.26 8.26 0 0 1-5.61-.01 6.17 6.17 0 0 1-2.22-1.4 6.87 6.87 0 0 1-1.51-2.32 8.68 8.68 0 0 1-.58-3.29c0-1.24.2-2.35.58-3.28a6.53 6.53 0 0 1 3.78-3.75 8 8 0 0 1 5.58.01 6.41 6.41 0 0 1 3.78 3.78c.38.93.57 2.02.57 3.24a8.7 8.7 0 0 1-.57 3.29zm1.96-12.4a11.34 11.34 0 0 0-3.87-2.41 13.17 13.17 0 0 0-4.64-.83c-1.6 0-3.15.28-4.61.82a11.46 11.46 0 0 0-3.9 2.42 11.6 11.6 0 0 0-2.68 3.89 13.07 13.07 0 0 0-.99 5.2c0 1.93.33 3.69.97 5.2a11.32 11.32 0 0 0 6.51 6.29c1.46.54 3.02.82 4.64.82 1.77 0 3.43-.3 4.92-.89a11.15 11.15 0 0 0 6.4-6.45c.59-1.5.9-3.17.9-4.98 0-1.92-.34-3.66-1-5.2a11.75 11.75 0 0 0-2.65-3.88zm-27.58 7.34a3.14 3.14 0 0 1-1.83 1.96c-.41.18-1.16.3-2.61.3h-3.77V5.72h4.94a3.57 3.57 0 0 1 2.57 1.07c.3.32.55.72.71 1.18a4.54 4.54 0 0 1 0 3.07zm4.63-4.87a7.99 7.99 0 0 0-4.46-4.66 9.07 9.07 0 0 0-3.63-.7h-8.89a.78.78 0 0 0-.77.77v22.37c0 .43.35.78.77.78h3.36c.43 0 .78-.35.78-.78v-5.73h4.75c1.33 0 2.55-.23 3.61-.69a8.24 8.24 0 0 0 4.46-4.6 10.1 10.1 0 0 0 .02-6.76zm-33.4 1.5c-.02.5.1.8.3 1.07.2.3.5.55.89.75.42.22.91.39 1.47.51.61.13 1.24.26 1.87.37 1.13.18 2.25.4 3.32.67 1.12.28 2.12.7 2.96 1.24a6.1 6.1 0 0 1 2.07 2.24c.5.92.72 2.1.66 3.51a6.61 6.61 0 0 1-3.4 5.68 9 9 0 0 1-3 1.16c-1.12.2-2.38.27-3.47.23-2.72-.12-6.74-1.69-8.75-4.44-.16-.22-.36-.6.08-1.04l2.5-2.54c.42-.44.82-.13 1 .12a7.6 7.6 0 0 0 5.36 3.09c.97.04 1.09 0 1.7-.08a5.13 5.13 0 0 0 1.49-.42c.42-.19.77-.44 1.04-.8.26-.32.4-.79.44-1.32a1.9 1.9 0 0 0-.34-1.27 2.88 2.88 0 0 0-1.05-.86 5.93 5.93 0 0 0-1.65-.53c-.66-.12-1.31-.23-1.95-.32a21.86 21.86 0 0 1-3.1-.64 9.8 9.8 0 0 1-2.76-1.24 6.24 6.24 0 0 1-1.97-2.13 5.6 5.6 0 0 1-.68-3.13c.06-1.26.37-2.37.94-3.3a6.98 6.98 0 0 1 2.18-2.26A9.17 9.17 0 0 1 114.3.76c2.15-.48 4.3-.4 6.42.27 2.3.73 4.14 2.49 4.99 3.74.15.23.3.59-.03.96-.33.37-2.35 2.36-2.35 2.36-.44.41-.89.32-1.13-.05a5.9 5.9 0 0 0-4.7-2.77c-2-.13-4.23.32-4.32 2.4m-12.21 8.43a6.48 6.48 0 0 1-3.8 3.73 8.26 8.26 0 0 1-5.61-.01 6.17 6.17 0 0 1-2.22-1.4 6.88 6.88 0 0 1-1.52-2.32 8.68 8.68 0 0 1-.57-3.29c0-1.24.2-2.35.57-3.28a6.52 6.52 0 0 1 3.78-3.75 8.05 8.05 0 0 1 5.59.01 6.4 6.4 0 0 1 3.78 3.78c.38.93.57 2.02.57 3.24 0 1.25-.19 2.35-.57 3.29zm1.96-12.4a11.33 11.33 0 0 0-3.88-2.41 13.17 13.17 0 0 0-4.63-.83c-1.6 0-3.15.28-4.61.82a11.46 11.46 0 0 0-3.9 2.42 11.6 11.6 0 0 0-2.68 3.89 13 13 0 0 0-1 5.2c0 1.93.34 3.69.98 5.2a11.31 11.31 0 0 0 6.51 6.29c1.46.54 3.02.82 4.64.82 1.77 0 3.43-.3 4.92-.89a11.15 11.15 0 0 0 6.39-6.45c.6-1.5.9-3.17.9-4.98 0-1.92-.33-3.66-.99-5.2a11.75 11.75 0 0 0-2.65-3.88zM81.37 23.43l-5.45-6.77s4.4-1.6 4.4-7.18c0-1.15-.2-2.27-.57-3.3a7.99 7.99 0 0 0-4.47-4.67 9.06 9.06 0 0 0-3.63-.7h-8.87a.78.78 0 0 0-.78.77v22.37c0 .43.35.78.78.78h3.34c.43 0 .78-.35.78-.78V5.72h4.97a3.57 3.57 0 0 1 2.57 1.07c.3.32.54.72.7 1.18a4.56 4.56 0 0 1 0 3.07A3.14 3.14 0 0 1 73.3 13c-.42.18-1.16.3-2.62.3H68.6c-.4 0-.72.37-.4.88l7.77 10.22c.14.2.38.33.63.33h4.29c.63 0 1.05-.58.47-1.3M57.77.8H54.4a.78.78 0 0 0-.78.77v14.8c0 .64-.1 1.2-.31 1.65-.2.46-.5.85-.85 1.16-.37.31-.82.56-1.33.73a8.01 8.01 0 0 1-4.11 0 4.06 4.06 0 0 1-1.36-.74 3.2 3.2 0 0 1-.86-1.15 3.99 3.99 0 0 1-.31-1.64V1.59A.78.78 0 0 0 43.7.8h-3.35a.78.78 0 0 0-.78.77V16.5a8.03 8.03 0 0 0 2.85 6.36 9 9 0 0 0 3.04 1.66 11.96 11.96 0 0 0 7.24 0 8.21 8.21 0 0 0 5.06-4.37c.52-1.06.77-2.29.77-3.65V1.58a.78.78 0 0 0-.77-.77m-21.5 4.9c.42 0 .76-.34.76-.77V1.6a.77.77 0 0 0-.77-.77H23.2v4.9h13.07m0 19c.43 0 .77-.34.77-.77V20.6a.77.77 0 0 0-.77-.78H23.2v4.9h13.07"/>
    <path d="M21.12 24.68l-7.98-5.25L.8 24.66l7.27-8.53L0 10.84h12.58l8.54-10v10h12.2l-12.2 5.2v8.64"/>
  </g>
</svg>
